<svg width="253" height="169" viewBox="0 0 253 169" fill="none" xmlns="http://www.w3.org/2000/svg">
<path d="M112.476 86.185C112.476 95.4201 105.266 102.225 96.4171 102.225C87.5683 102.225 80.3579 95.4201 80.3579 86.185C80.3579 76.8848 87.5683 70.1447 96.4171 70.1447C105.266 70.1447 112.476 76.8848 112.476 86.185ZM105.446 86.185C105.446 80.414 101.267 76.4654 96.4171 76.4654C91.5668 76.4654 87.3879 80.414 87.3879 86.185C87.3879 91.8982 91.5668 95.9047 96.4171 95.9047C101.267 95.9047 105.446 91.891 105.446 86.185Z" fill="#EA4335"/>
<path d="M147.121 86.185C147.121 95.4201 139.91 102.225 131.062 102.225C122.213 102.225 115.002 95.4201 115.002 86.185C115.002 76.8921 122.213 70.1447 131.062 70.1447C139.91 70.1447 147.121 76.8848 147.121 86.185ZM140.091 86.185C140.091 80.414 135.912 76.4654 131.062 76.4654C126.211 76.4654 122.032 80.414 122.032 86.185C122.032 91.8982 126.211 95.9047 131.062 95.9047C135.912 95.9047 140.091 91.891 140.091 86.185Z" fill="#FBBC05"/>
<path d="M180.322 71.1138V99.9111C180.322 111.757 173.349 116.595 165.107 116.595C157.348 116.595 152.678 111.395 150.917 107.143L157.038 104.59C158.127 107.201 160.798 110.282 165.1 110.282C170.376 110.282 173.645 107.02 173.645 100.88V98.5732H173.4C171.826 100.519 168.795 102.218 164.97 102.218C156.965 102.218 149.632 95.2321 149.632 86.2429C149.632 77.1886 156.965 70.1447 164.97 70.1447C168.788 70.1447 171.819 71.8442 173.4 73.7317H173.645V71.121H180.322V71.1138ZM174.143 86.2429C174.143 80.5948 170.383 76.4654 165.598 76.4654C160.747 76.4654 156.684 80.5948 156.684 86.2429C156.684 91.8331 160.747 95.9046 165.598 95.9046C170.383 95.9046 174.143 91.8331 174.143 86.2429Z" fill="#4285F4"/>
<path d="M191.328 54.2346V101.242H184.472V54.2346H191.328Z" fill="#34A853"/>
<path d="M218.048 91.4643L223.505 95.1091C221.743 97.7198 217.5 102.218 210.166 102.218C201.072 102.218 194.281 95.1742 194.281 86.1778C194.281 76.639 201.13 70.1375 209.38 70.1375C217.687 70.1375 221.751 76.7619 223.079 80.3417L223.808 82.1641L202.408 91.0448C204.046 94.263 206.594 95.9046 210.166 95.9046C213.746 95.9046 216.229 94.1401 218.048 91.4643ZM201.253 85.6933L215.558 79.7414C214.771 77.7382 212.404 76.3425 209.618 76.3425C206.045 76.3425 201.072 79.5028 201.253 85.6933V85.6933Z" fill="#EA4335"/>
<path d="M54.4035 82.0122V75.2071H77.2905C77.5142 76.3931 77.6297 77.7961 77.6297 79.3148C77.6297 84.4204 76.2367 90.7339 71.7474 95.2321C67.3807 99.7882 61.8015 102.218 54.4107 102.218C40.7117 102.218 29.1924 91.0376 29.1924 77.3115C29.1924 63.5854 40.7117 52.405 54.4107 52.405C61.9892 52.405 67.3879 55.3845 71.4442 59.268L66.6517 64.07C63.743 61.3363 59.8022 59.2102 54.4035 59.2102C44.3999 59.2102 36.576 67.2882 36.576 77.3115C36.576 87.3349 44.3999 95.4129 54.4035 95.4129C60.8921 95.4129 64.5875 92.8022 66.9549 90.4301C68.8748 88.5065 70.1378 85.7583 70.6358 82.005L54.4035 82.0122Z" fill="#4285F4"/>
</svg>
